<svg xmlns="http://www.w3.org/2000/svg" xmlns:xlink="http://www.w3.org/1999/xlink" width="60.1" height="50.1" viewBox="0 0 60.1 50.1"><defs><path id="a" d="M0 0h60.1v50.1H0z"/></defs><clipPath id="b"><use xlink:href="#a" overflow="visible"/></clipPath><path d="M45.5 1c-7.8 0-12.7 4.7-12.7 12.1 0 6.2 3.5 10.3 9.7 11.3-2.9 6.7-7.2 12.5-10 17.2l9.5 7.2c11.4-14 17.2-25.3 17.2-33.7C59.1 7 53.4 1 45.5 1zM14.3 1C6.5 1 1.5 5.7 1.5 13.1c0 6.2 3.5 10.3 9.7 11.3-2.9 6.7-7.2 12.5-10 17.2l9.5 7.2c11.4-14 17.2-25.3 17.2-33.7C27.9 7 22.2 1 14.3 1z" clip-path="url(#b)" fill="none" stroke="#fec92e" stroke-width="1.984"/></svg>