<svg version="1.1" id="Слой_1" xmlns="http://www.w3.org/2000/svg" xmlns:xlink="http://www.w3.org/1999/xlink" x="0" y="0" width="49.3" height="49.3" xml:space="preserve"><style>.st1{clip-path:url(#SVGID_2_);fill:#575653}</style><defs><path id="SVGID_1_" d="M0 0h49.3v49.3H0z"/></defs><clipPath id="SVGID_2_"><use xlink:href="#SVGID_1_" overflow="visible"/></clipPath><path d="M24.6 0C11 0 0 11 0 24.6s11 24.6 24.6 24.6h24.6V24.6C49.3 11 38.3 0 24.6 0" clip-path="url(#SVGID_2_)" fill="#ffc730"/><path class="st1" d="M12.3 37c3.2 3.2 7.5 5.1 12.4 5.1s9.2-2 12.4-5.1c3.2-3.2 5.1-7.5 5.1-12.4 0-4.8-2-9.2-5.1-12.4-3.2-3.2-7.5-5.1-12.4-5.1s-9.2 2-12.4 5.1c-3.2 3.2-5.1 7.5-5.1 12.4s1.9 9.3 5.1 12.4m4.3 0c-.9-.6-1.7-1.2-2.4-1.9-2.7-2.7-4.3-6.4-4.3-10.5 0-1.2.1-2.3.4-3.4.8.9 1.9 1.7 3 2.3v1.1c0 4.7 1.2 9 3.2 12.1-.1.2 0 .3.1.3m-3.1-16.1c-.5-.4-1.1-.9-1.5-1.4-1.1-1.8.9-4.1 2.2-5.3.7-.7 1.5-1.4 2.4-1.9-.1.1-.1.2-.2.3-1.4 2.2-2.5 5.1-2.9 8.3m14.2 4.6c0-.8 0-.6-.5-1.2-.4-.4-.4-.4-.9-.4-2.2.1-4.5 0-6.7-.5-1.3-.3-2.5-.7-3.6-1.1.3-3.3 1.3-6.2 2.6-8.4 1.5-2.4 3.4-3.9 5.5-4.1h.5c4.1 0 7.8 1.7 10.5 4.3.8.8 2.1 2.3 2.4 3.4.3.9 0 1.6-.5 2.2-.2.2-.4.5-.7.7-.5.4-.4.4-.1.7.5.4.4.8.4 1.1 0 .2-.1.4-.2.6 0 .1 0 .1.1.1.2 0 .6-.2.8-.3.6-.4 1.2-.9 1.7-1.5.3 1.1.4 2.2.4 3.4 0 4.1-1.7 7.8-4.3 10.5-2.7 2.7-6.3 4.3-10.4 4.3-2.9-.1-4.5-1.6-6.1-4.1-1.7-2.7-2.7-6.4-2.7-10.6 1 .4 2 .7 3.1.9 2.6.5 5.4.7 8 .5.7.1.7.1.7-.5"/><path class="st1" d="M34.7 22.4c-.1-.2-.2-.3-.3-.4l-4.9-3.3c-.2-.2-.5-.2-.8-.1l-1.6.6c-.1 0-.2.1-.3.1-.4.3-.4.8-.1 1.1l3.2 3.7-.1 4.8v.3c.1.4.6.6 1.1.5l1.6-.6c.3-.1.5-.3.5-.6l1.6-5.7c.2-.1.2-.3.1-.4"/></svg>