<?xml version="1.0" encoding="UTF-8"?> <svg xmlns="http://www.w3.org/2000/svg" width="43.1" height="43.1"><path d="M6.3 36.8c3.9 3.9 9.3 6.3 15.3 6.3s11.3-2.4 15.2-6.3c3.9-3.9 6.3-9.3 6.3-15.3s-2.4-11.3-6.3-15.3C32.9 2.4 27.5 0 21.6 0c-6 0-11.3 2.4-15.3 6.3C2.4 10.2 0 15.6 0 21.6c0 5.9 2.4 11.3 6.3 15.2m5.3.1c-1.1-.7-2-1.5-2.9-2.4-3.3-3.3-5.3-7.9-5.3-12.9 0-1.5.2-2.9.5-4.2 1 1.1 2.3 2.1 3.7 2.8v1.4c0 5.8 1.5 11.1 3.9 14.9-.1.1 0 .2.1.4m-3.8-20c-.6-.4-1.4-1-1.8-1.7-1.4-2.3 1.1-5 2.7-6.5.9-.9 1.9-1.7 2.9-2.4-.1.1-.1.2-.2.3-1.8 2.8-3 6.4-3.6 10.3m17.5 5.7c0-1 .1-.8-.6-1.5-.5-.5-.4-.5-1.1-.5-2.7.2-5.6 0-8.3-.6-1.6-.3-3.1-.8-4.4-1.4.4-4 1.6-7.6 3.3-10.3 1.8-2.9 4.2-4.8 6.8-5h.6c5 0 9.6 2 12.9 5.3.9.9 2.6 2.8 3 4.2.3 1.1.1 2-.6 2.8-.2.3-.5.6-.8.8-.6.5-.5.5-.1.9.6.6.5 1 .5 1.4-.1.3-.1.5-.2.8 0 .1 0 .2.1.2.2 0 .7-.2 1-.4.8-.5 1.5-1.1 2.1-1.8.3 1.3.5 2.7.5 4.2 0 5-2 9.6-5.3 12.9-3.3 3.3-7.8 5.3-12.8 5.3-3.5-.1-5.5-1.9-7.5-5-2.1-3.3-3.4-7.9-3.4-13 1.2.5 2.5.8 3.8 1.1 3.2.7 6.6.9 9.9.6.6-.2.6-.2.6-1" fill="#575754"></path><path d="M34 18.7c-.1-.2-.2-.4-.4-.5l-6-4.1c-.3-.2-.6-.3-1-.1l-1.9.7c-.1 0-.2.1-.3.2-.4.4-.5 1-.2 1.4l4 4.5-.1 6c0 .1 0 .3.1.4.2.5.8.8 1.3.6l1.9-.7c.3-.1.6-.4.7-.7l2-7c-.1-.2-.1-.5-.1-.7" fill="#fec830"></path></svg> 