<?xml version="1.0" encoding="utf-8"?>
<!-- Generator: Adobe Illustrator 22.1.0, SVG Export Plug-In . SVG Version: 6.00 Build 0)  -->
<svg version="1.1" id="Слой_1" xmlns="http://www.w3.org/2000/svg" xmlns:xlink="http://www.w3.org/1999/xlink" x="0px" y="0px"
	 width="970px" height="550px" viewBox="0 0 970 550" style="enable-background:new 0 0 970 550;" xml:space="preserve">
<style type="text/css">
	.st0{clip-path:url(#SVGID_2_);}
	.st1{fill:#F3F4F4;}
</style>
<g>
	<defs>
		<rect id="SVGID_1_" width="970" height="550"/>
	</defs>
	<clipPath id="SVGID_2_">
		<use xlink:href="#SVGID_1_"  style="overflow:visible;"/>
	</clipPath>
	<g transform="translate(-5.000000, -5.000000)" class="st0">
		<path class="st1" d="M5-205h970v970H5V-205L5-205z M599.9,200.4l-12.8-74.7l-261.6,45.9l38.3,218.5l26-4.4v18.8h265.6V200.4H599.9
			L599.9,200.4z M389.8,363.8l-8.4,1.6l-31.2-176.1l219.3-38.7l8.8,49.9H389.8V363.8L389.8,363.8L389.8,363.8z M633.8,383H411.3V222
			h222.5V383L633.8,383z M425.7,236.4v119.4l45.1-30l28,17.6l67.9-74.7l8.8,3.6l43.9,50.7v-86.7H425.7L425.7,236.4L425.7,236.4z
			 M468.8,287.9c-10.4,0-19.2-8.8-19.2-19.2c0-10.4,8.8-19.2,19.2-19.2c10.4,0,19.2,8.8,19.2,19.2
			C488,279.1,479.2,287.9,468.8,287.9L468.8,287.9L468.8,287.9z"/>
	</g>
</g>
</svg>
